<mxfile host="Electron" modified="2023-11-20T02:14:53.057Z" agent="Mozilla/5.0 (Macintosh; Intel Mac OS X 10_15_7) AppleWebKit/537.36 (KHTML, like Gecko) draw.io/22.1.2 Chrome/114.0.5735.289 Electron/25.9.4 Safari/537.36" etag="8tFhmIUVFFuWYyFYNyb3" version="22.1.2" type="device">
  <diagram id="C5RBs43oDa-KdzZeNtuy" name="Page-1">
    <mxGraphModel dx="803" dy="447" grid="1" gridSize="10" guides="1" tooltips="1" connect="1" arrows="1" fold="1" page="1" pageScale="1" pageWidth="827" pageHeight="1169" math="0" shadow="0">
      <root>
        <mxCell id="WIyWlLk6GJQsqaUBKTNV-0" />
        <mxCell id="WIyWlLk6GJQsqaUBKTNV-1" parent="WIyWlLk6GJQsqaUBKTNV-0" />
        <mxCell id="h2-4KKPt1dcH0Z3YfNcZ-0" value="&lt;b&gt;&lt;u&gt;Dashboard&lt;/u&gt;&lt;/b&gt;" style="rounded=0;whiteSpace=wrap;html=1;verticalAlign=top;" vertex="1" parent="WIyWlLk6GJQsqaUBKTNV-1">
          <mxGeometry x="160" y="220" width="160" height="320" as="geometry" />
        </mxCell>
        <mxCell id="h2-4KKPt1dcH0Z3YfNcZ-2" value="" style="shape=actor;whiteSpace=wrap;html=1;" vertex="1" parent="WIyWlLk6GJQsqaUBKTNV-1">
          <mxGeometry x="50" y="240" width="40" height="60" as="geometry" />
        </mxCell>
        <mxCell id="h2-4KKPt1dcH0Z3YfNcZ-4" value="" style="edgeStyle=none;orthogonalLoop=1;jettySize=auto;html=1;rounded=0;" edge="1" parent="WIyWlLk6GJQsqaUBKTNV-1" source="h2-4KKPt1dcH0Z3YfNcZ-2" target="h2-4KKPt1dcH0Z3YfNcZ-0">
          <mxGeometry width="100" relative="1" as="geometry">
            <mxPoint x="70" y="350" as="sourcePoint" />
            <mxPoint x="170" y="350" as="targetPoint" />
            <Array as="points" />
          </mxGeometry>
        </mxCell>
        <mxCell id="h2-4KKPt1dcH0Z3YfNcZ-5" value="" style="shape=actor;whiteSpace=wrap;html=1;" vertex="1" parent="WIyWlLk6GJQsqaUBKTNV-1">
          <mxGeometry x="30" y="350" width="40" height="60" as="geometry" />
        </mxCell>
        <mxCell id="h2-4KKPt1dcH0Z3YfNcZ-7" value="" style="edgeStyle=none;orthogonalLoop=1;jettySize=auto;html=1;rounded=0;" edge="1" parent="WIyWlLk6GJQsqaUBKTNV-1" source="h2-4KKPt1dcH0Z3YfNcZ-5" target="h2-4KKPt1dcH0Z3YfNcZ-0">
          <mxGeometry width="100" relative="1" as="geometry">
            <mxPoint x="100" y="293" as="sourcePoint" />
            <mxPoint x="170" y="338" as="targetPoint" />
            <Array as="points" />
          </mxGeometry>
        </mxCell>
        <mxCell id="h2-4KKPt1dcH0Z3YfNcZ-8" value="" style="shape=actor;whiteSpace=wrap;html=1;" vertex="1" parent="WIyWlLk6GJQsqaUBKTNV-1">
          <mxGeometry x="40" y="460" width="40" height="60" as="geometry" />
        </mxCell>
        <mxCell id="h2-4KKPt1dcH0Z3YfNcZ-10" value="" style="edgeStyle=none;orthogonalLoop=1;jettySize=auto;html=1;rounded=0;" edge="1" parent="WIyWlLk6GJQsqaUBKTNV-1" source="h2-4KKPt1dcH0Z3YfNcZ-8" target="h2-4KKPt1dcH0Z3YfNcZ-0">
          <mxGeometry width="100" relative="1" as="geometry">
            <mxPoint x="80" y="390" as="sourcePoint" />
            <mxPoint x="170" y="390" as="targetPoint" />
            <Array as="points" />
          </mxGeometry>
        </mxCell>
      </root>
    </mxGraphModel>
  </diagram>
</mxfile>
